<svg xmlns="http://www.w3.org/2000/svg" width="720" height="500" viewBox="0 0 720 500">
<rect width="100%" height="100%" fill="white"/>
<text x="360.00" y="38.00" text-anchor="middle" font-family="Times New Roman, Times, serif" font-size="28" font-weight="700" fill="#222222">Stage 4 Pair-Level Detection</text>
<line x1="82.00" y1="405.00" x2="667.00" y2="405.00" stroke="#d9d9d9" stroke-width="1" stroke-dasharray="4 3"/>
<text x="72.00" y="410.00" text-anchor="end" font-family="Times New Roman, Times, serif" font-size="18" font-weight="700" fill="#222222">0.0</text>
<line x1="82.00" y1="335.23" x2="667.00" y2="335.23" stroke="#d9d9d9" stroke-width="1" stroke-dasharray="4 3"/>
<text x="72.00" y="340.23" text-anchor="end" font-family="Times New Roman, Times, serif" font-size="18" font-weight="700" fill="#222222">0.2</text>
<line x1="82.00" y1="265.47" x2="667.00" y2="265.47" stroke="#d9d9d9" stroke-width="1" stroke-dasharray="4 3"/>
<text x="72.00" y="270.47" text-anchor="end" font-family="Times New Roman, Times, serif" font-size="18" font-weight="700" fill="#222222">0.4</text>
<line x1="82.00" y1="195.70" x2="667.00" y2="195.70" stroke="#d9d9d9" stroke-width="1" stroke-dasharray="4 3"/>
<text x="72.00" y="200.70" text-anchor="end" font-family="Times New Roman, Times, serif" font-size="18" font-weight="700" fill="#222222">0.6</text>
<line x1="82.00" y1="125.93" x2="667.00" y2="125.93" stroke="#d9d9d9" stroke-width="1" stroke-dasharray="4 3"/>
<text x="72.00" y="130.93" text-anchor="end" font-family="Times New Roman, Times, serif" font-size="18" font-weight="700" fill="#222222">0.8</text>
<line x1="82.00" y1="405.00" x2="667.00" y2="405.00" stroke="#222222" stroke-width="1.8"/>
<line x1="82.00" y1="105.00" x2="82.00" y2="405.00" stroke="#222222" stroke-width="1.8"/>
<text x="19.00" y="255.00" text-anchor="middle" font-family="Times New Roman, Times, serif" font-size="24" font-weight="700" fill="#222222" transform="rotate(-90.0 19.00 255.00)">Score</text>
<rect x="119.50" y="328.94" width="12.00" height="76.06" rx="0" fill="#1f77b4" stroke="#222222" stroke-width="0.8" opacity="1.0"/>
<rect x="134.50" y="160.36" width="12.00" height="244.64" rx="0" fill="#d62728" stroke="#222222" stroke-width="0.8" opacity="1.0"/>
<rect x="149.50" y="288.96" width="12.00" height="116.04" rx="0" fill="#2ca02c" stroke="#222222" stroke-width="0.8" opacity="1.0"/>
<text x="140.50" y="435.00" text-anchor="middle" font-family="Times New Roman, Times, serif" font-size="18" font-weight="700" fill="#222222" transform="rotate(-18.0 140.50 435.00)">Image</text>
<rect x="236.50" y="307.30" width="12.00" height="97.70" rx="0" fill="#1f77b4" stroke="#222222" stroke-width="0.8" opacity="1.0"/>
<rect x="251.50" y="308.35" width="12.00" height="96.65" rx="0" fill="#d62728" stroke="#222222" stroke-width="0.8" opacity="1.0"/>
<rect x="266.50" y="307.83" width="12.00" height="97.17" rx="0" fill="#2ca02c" stroke="#222222" stroke-width="0.8" opacity="1.0"/>
<text x="257.50" y="435.00" text-anchor="middle" font-family="Times New Roman, Times, serif" font-size="18" font-weight="700" fill="#222222" transform="rotate(-18.0 257.50 435.00)">Text</text>
<rect x="353.50" y="334.78" width="12.00" height="70.22" rx="0" fill="#1f77b4" stroke="#222222" stroke-width="0.8" opacity="1.0"/>
<rect x="368.50" y="126.38" width="12.00" height="278.62" rx="0" fill="#d62728" stroke="#222222" stroke-width="0.8" opacity="1.0"/>
<rect x="383.50" y="292.82" width="12.00" height="112.18" rx="0" fill="#2ca02c" stroke="#222222" stroke-width="0.8" opacity="1.0"/>
<text x="374.50" y="435.00" text-anchor="middle" font-family="Times New Roman, Times, serif" font-size="18" font-weight="700" fill="#222222" transform="rotate(-18.0 374.50 435.00)">Union</text>
<rect x="470.50" y="206.58" width="12.00" height="198.42" rx="0" fill="#1f77b4" stroke="#222222" stroke-width="0.8" opacity="1.0"/>
<rect x="485.50" y="170.93" width="12.00" height="234.07" rx="0" fill="#d62728" stroke="#222222" stroke-width="0.8" opacity="1.0"/>
<rect x="500.50" y="190.22" width="12.00" height="214.78" rx="0" fill="#2ca02c" stroke="#222222" stroke-width="0.8" opacity="1.0"/>
<text x="491.50" y="435.00" text-anchor="middle" font-family="Times New Roman, Times, serif" font-size="18" font-weight="700" fill="#222222" transform="rotate(-18.0 491.50 435.00)">Joint</text>
<rect x="587.50" y="151.65" width="12.00" height="253.35" rx="0" fill="#1f77b4" stroke="#222222" stroke-width="0.8" opacity="1.0"/>
<rect x="602.50" y="254.74" width="12.00" height="150.26" rx="0" fill="#d62728" stroke="#222222" stroke-width="0.8" opacity="1.0"/>
<rect x="617.50" y="216.36" width="12.00" height="188.64" rx="0" fill="#2ca02c" stroke="#222222" stroke-width="0.8" opacity="1.0"/>
<text x="608.50" y="435.00" text-anchor="middle" font-family="Times New Roman, Times, serif" font-size="18" font-weight="700" fill="#222222" transform="rotate(-18.0 608.50 435.00)">Cons.</text>
<rect x="205.00" y="63.00" width="18.00" height="15.00" rx="0" fill="#1f77b4" stroke="#222222" stroke-width="0.9" opacity="1.0"/>
<text x="233.00" y="76.00" text-anchor="start" font-family="Times New Roman, Times, serif" font-size="17" font-weight="700" fill="#222222">Precision</text>
<rect x="335.00" y="63.00" width="18.00" height="15.00" rx="0" fill="#d62728" stroke="#222222" stroke-width="0.9" opacity="1.0"/>
<text x="363.00" y="76.00" text-anchor="start" font-family="Times New Roman, Times, serif" font-size="17" font-weight="700" fill="#222222">Recall</text>
<rect x="465.00" y="63.00" width="18.00" height="15.00" rx="0" fill="#2ca02c" stroke="#222222" stroke-width="0.9" opacity="1.0"/>
<text x="493.00" y="76.00" text-anchor="start" font-family="Times New Roman, Times, serif" font-size="17" font-weight="700" fill="#222222">F1</text>
</svg>
