<svg xmlns="http://www.w3.org/2000/svg" width="720" height="500" viewBox="0 0 720 500">
<rect width="100%" height="100%" fill="white"/>
<text x="360.00" y="38.00" text-anchor="middle" font-family="Times New Roman, Times, serif" font-size="28" font-weight="700" fill="#222222">Pair-Level F1 with 95% CI</text>
<line x1="82.00" y1="402.00" x2="667.00" y2="402.00" stroke="#d9d9d9" stroke-width="1" stroke-dasharray="4 3"/>
<text x="72.00" y="407.00" text-anchor="end" font-family="Times New Roman, Times, serif" font-size="18" font-weight="700" fill="#222222">0.0</text>
<line x1="82.00" y1="307.71" x2="667.00" y2="307.71" stroke="#d9d9d9" stroke-width="1" stroke-dasharray="4 3"/>
<text x="72.00" y="312.71" text-anchor="end" font-family="Times New Roman, Times, serif" font-size="18" font-weight="700" fill="#222222">0.2</text>
<line x1="82.00" y1="213.43" x2="667.00" y2="213.43" stroke="#d9d9d9" stroke-width="1" stroke-dasharray="4 3"/>
<text x="72.00" y="218.43" text-anchor="end" font-family="Times New Roman, Times, serif" font-size="18" font-weight="700" fill="#222222">0.4</text>
<line x1="82.00" y1="119.14" x2="667.00" y2="119.14" stroke="#d9d9d9" stroke-width="1" stroke-dasharray="4 3"/>
<text x="72.00" y="124.14" text-anchor="end" font-family="Times New Roman, Times, serif" font-size="18" font-weight="700" fill="#222222">0.6</text>
<line x1="82.00" y1="402.00" x2="667.00" y2="402.00" stroke="#222222" stroke-width="1.8"/>
<line x1="82.00" y1="72.00" x2="82.00" y2="402.00" stroke="#222222" stroke-width="1.8"/>
<text x="19.00" y="237.00" text-anchor="middle" font-family="Times New Roman, Times, serif" font-size="24" font-weight="700" fill="#222222" transform="rotate(-90.0 19.00 237.00)">F1</text>
<rect x="122.50" y="245.18" width="36.00" height="156.82" rx="0" fill="#7f7f7f" stroke="#222222" stroke-width="0.8" opacity="0.9"/>
<line x1="140.50" y1="258.14" x2="140.50" y2="232.33" stroke="#222222" stroke-width="2"/>
<line x1="130.50" y1="258.14" x2="150.50" y2="258.14" stroke="#222222" stroke-width="2"/>
<line x1="130.50" y1="232.33" x2="150.50" y2="232.33" stroke="#222222" stroke-width="2"/>
<text x="140.50" y="236.18" text-anchor="middle" font-family="Times New Roman, Times, serif" font-size="15" font-weight="700" fill="#222222">0.33</text>
<text x="140.50" y="432.00" text-anchor="middle" font-family="Times New Roman, Times, serif" font-size="18" font-weight="700" fill="#222222" transform="rotate(-18.0 140.50 432.00)">Image</text>
<rect x="239.50" y="270.68" width="36.00" height="131.32" rx="0" fill="#b7a99a" stroke="#222222" stroke-width="0.8" opacity="0.9"/>
<line x1="257.50" y1="288.48" x2="257.50" y2="252.86" stroke="#222222" stroke-width="2"/>
<line x1="247.50" y1="288.48" x2="267.50" y2="288.48" stroke="#222222" stroke-width="2"/>
<line x1="247.50" y1="252.86" x2="267.50" y2="252.86" stroke="#222222" stroke-width="2"/>
<text x="257.50" y="261.68" text-anchor="middle" font-family="Times New Roman, Times, serif" font-size="15" font-weight="700" fill="#222222">0.28</text>
<text x="257.50" y="432.00" text-anchor="middle" font-family="Times New Roman, Times, serif" font-size="18" font-weight="700" fill="#222222" transform="rotate(-18.0 257.50 432.00)">Text</text>
<rect x="356.50" y="250.40" width="36.00" height="151.60" rx="0" fill="#d62728" stroke="#222222" stroke-width="0.8" opacity="0.9"/>
<line x1="374.50" y1="262.04" x2="374.50" y2="238.66" stroke="#222222" stroke-width="2"/>
<line x1="364.50" y1="262.04" x2="384.50" y2="262.04" stroke="#222222" stroke-width="2"/>
<line x1="364.50" y1="238.66" x2="384.50" y2="238.66" stroke="#222222" stroke-width="2"/>
<text x="374.50" y="241.40" text-anchor="middle" font-family="Times New Roman, Times, serif" font-size="15" font-weight="700" fill="#222222">0.32</text>
<text x="374.50" y="432.00" text-anchor="middle" font-family="Times New Roman, Times, serif" font-size="18" font-weight="700" fill="#222222" transform="rotate(-18.0 374.50 432.00)">Union</text>
<rect x="473.50" y="111.75" width="36.00" height="290.25" rx="0" fill="#1f77b4" stroke="#222222" stroke-width="0.8" opacity="0.9"/>
<line x1="491.50" y1="128.65" x2="491.50" y2="95.46" stroke="#222222" stroke-width="2"/>
<line x1="481.50" y1="128.65" x2="501.50" y2="128.65" stroke="#222222" stroke-width="2"/>
<line x1="481.50" y1="95.46" x2="501.50" y2="95.46" stroke="#222222" stroke-width="2"/>
<text x="491.50" y="102.75" text-anchor="middle" font-family="Times New Roman, Times, serif" font-size="15" font-weight="700" fill="#222222">0.62</text>
<text x="491.50" y="432.00" text-anchor="middle" font-family="Times New Roman, Times, serif" font-size="18" font-weight="700" fill="#222222" transform="rotate(-18.0 491.50 432.00)">Joint</text>
<rect x="590.50" y="147.07" width="36.00" height="254.93" rx="0" fill="#2ca02c" stroke="#222222" stroke-width="0.8" opacity="0.9"/>
<line x1="608.50" y1="167.64" x2="608.50" y2="126.84" stroke="#222222" stroke-width="2"/>
<line x1="598.50" y1="167.64" x2="618.50" y2="167.64" stroke="#222222" stroke-width="2"/>
<line x1="598.50" y1="126.84" x2="618.50" y2="126.84" stroke="#222222" stroke-width="2"/>
<text x="608.50" y="138.07" text-anchor="middle" font-family="Times New Roman, Times, serif" font-size="15" font-weight="700" fill="#222222">0.54</text>
<text x="608.50" y="432.00" text-anchor="middle" font-family="Times New Roman, Times, serif" font-size="18" font-weight="700" fill="#222222" transform="rotate(-18.0 608.50 432.00)">Cons.</text>
</svg>
