<svg xmlns="http://www.w3.org/2000/svg" width="720" height="500" viewBox="0 0 720 500">
<rect width="100%" height="100%" fill="white"/>
<text x="360.00" y="38.00" text-anchor="middle" font-family="Times New Roman, Times, serif" font-size="28" font-weight="700" fill="#222222">Error Decomposition</text>
<line x1="88.00" y1="402.00" x2="663.00" y2="402.00" stroke="#d9d9d9" stroke-width="1" stroke-dasharray="4 3"/>
<text x="78.00" y="407.00" text-anchor="end" font-family="Times New Roman, Times, serif" font-size="18" font-weight="700" fill="#222222">0.0</text>
<line x1="88.00" y1="315.16" x2="663.00" y2="315.16" stroke="#d9d9d9" stroke-width="1" stroke-dasharray="4 3"/>
<text x="78.00" y="320.16" text-anchor="end" font-family="Times New Roman, Times, serif" font-size="18" font-weight="700" fill="#222222">500</text>
<line x1="88.00" y1="228.32" x2="663.00" y2="228.32" stroke="#d9d9d9" stroke-width="1" stroke-dasharray="4 3"/>
<text x="78.00" y="233.32" text-anchor="end" font-family="Times New Roman, Times, serif" font-size="18" font-weight="700" fill="#222222">1000</text>
<line x1="88.00" y1="141.47" x2="663.00" y2="141.47" stroke="#d9d9d9" stroke-width="1" stroke-dasharray="4 3"/>
<text x="78.00" y="146.47" text-anchor="end" font-family="Times New Roman, Times, serif" font-size="18" font-weight="700" fill="#222222">1500</text>
<line x1="88.00" y1="402.00" x2="663.00" y2="402.00" stroke="#222222" stroke-width="1.8"/>
<line x1="88.00" y1="72.00" x2="88.00" y2="402.00" stroke="#222222" stroke-width="1.8"/>
<text x="25.00" y="237.00" text-anchor="middle" font-family="Times New Roman, Times, serif" font-size="24" font-weight="700" fill="#222222" transform="rotate(-90.0 25.00 237.00)">Pair Count</text>
<rect x="124.50" y="345.73" width="42.00" height="56.27" rx="0" fill="#1f77b4" stroke="#222222" stroke-width="0.6" opacity="0.82"/>
<rect x="124.50" y="143.91" width="42.00" height="201.82" rx="0" fill="#d62728" stroke="#222222" stroke-width="0.6" opacity="0.82"/>
<rect x="124.50" y="119.94" width="42.00" height="23.97" rx="0" fill="#2ca02c" stroke="#222222" stroke-width="0.6" opacity="0.82"/>
<text x="145.50" y="432.00" text-anchor="middle" font-family="Times New Roman, Times, serif" font-size="18" font-weight="700" fill="#222222" transform="rotate(-18.0 145.50 432.00)">Image</text>
<rect x="239.50" y="379.77" width="42.00" height="22.23" rx="0" fill="#1f77b4" stroke="#222222" stroke-width="0.6" opacity="0.82"/>
<rect x="239.50" y="322.63" width="42.00" height="57.14" rx="0" fill="#d62728" stroke="#222222" stroke-width="0.6" opacity="0.82"/>
<rect x="239.50" y="264.62" width="42.00" height="58.01" rx="0" fill="#2ca02c" stroke="#222222" stroke-width="0.6" opacity="0.82"/>
<text x="260.50" y="432.00" text-anchor="middle" font-family="Times New Roman, Times, serif" font-size="18" font-weight="700" fill="#222222" transform="rotate(-18.0 260.50 432.00)">Text</text>
<rect x="354.50" y="337.91" width="42.00" height="64.09" rx="0" fill="#1f77b4" stroke="#222222" stroke-width="0.6" opacity="0.82"/>
<rect x="354.50" y="83.64" width="42.00" height="254.27" rx="0" fill="#d62728" stroke="#222222" stroke-width="0.6" opacity="0.82"/>
<rect x="354.50" y="67.48" width="42.00" height="16.15" rx="0" fill="#2ca02c" stroke="#222222" stroke-width="0.6" opacity="0.82"/>
<text x="375.50" y="432.00" text-anchor="middle" font-family="Times New Roman, Times, serif" font-size="18" font-weight="700" fill="#222222" transform="rotate(-18.0 375.50 432.00)">Union</text>
<rect x="469.50" y="348.16" width="42.00" height="53.84" rx="0" fill="#1f77b4" stroke="#222222" stroke-width="0.6" opacity="0.82"/>
<rect x="469.50" y="307.34" width="42.00" height="40.82" rx="0" fill="#d62728" stroke="#222222" stroke-width="0.6" opacity="0.82"/>
<rect x="469.50" y="280.94" width="42.00" height="26.40" rx="0" fill="#2ca02c" stroke="#222222" stroke-width="0.6" opacity="0.82"/>
<text x="490.50" y="432.00" text-anchor="middle" font-family="Times New Roman, Times, serif" font-size="18" font-weight="700" fill="#222222" transform="rotate(-18.0 490.50 432.00)">Joint</text>
<rect x="584.50" y="367.44" width="42.00" height="34.56" rx="0" fill="#1f77b4" stroke="#222222" stroke-width="0.6" opacity="0.82"/>
<rect x="584.50" y="354.41" width="42.00" height="13.03" rx="0" fill="#d62728" stroke="#222222" stroke-width="0.6" opacity="0.82"/>
<rect x="584.50" y="308.73" width="42.00" height="45.68" rx="0" fill="#2ca02c" stroke="#222222" stroke-width="0.6" opacity="0.82"/>
<text x="605.50" y="432.00" text-anchor="middle" font-family="Times New Roman, Times, serif" font-size="18" font-weight="700" fill="#222222" transform="rotate(-18.0 605.50 432.00)">Cons.</text>
<rect x="500.00" y="74.00" width="120.00" height="84.00" rx="0" fill="white" stroke="#888888" stroke-width="1" opacity="0.92"/>
<rect x="510.00" y="83.00" width="18.00" height="15.00" rx="0" fill="#1f77b4" stroke="#222222" stroke-width="0.9" opacity="1.0"/>
<text x="540.00" y="96.00" text-anchor="start" font-family="Times New Roman, Times, serif" font-size="17" font-weight="700" fill="#222222">TP</text>
<rect x="510.00" y="107.00" width="18.00" height="15.00" rx="0" fill="#d62728" stroke="#222222" stroke-width="0.9" opacity="1.0"/>
<text x="540.00" y="120.00" text-anchor="start" font-family="Times New Roman, Times, serif" font-size="17" font-weight="700" fill="#222222">FP</text>
<rect x="510.00" y="131.00" width="18.00" height="15.00" rx="0" fill="#2ca02c" stroke="#222222" stroke-width="0.9" opacity="1.0"/>
<text x="540.00" y="144.00" text-anchor="start" font-family="Times New Roman, Times, serif" font-size="17" font-weight="700" fill="#222222">FN</text>
</svg>
