<svg xmlns="http://www.w3.org/2000/svg" width="720" height="410" viewBox="0 0 720 410">
<rect width="100%" height="100%" fill="white"/>
<text x="360.00" y="38.00" text-anchor="middle" font-family="Times New Roman, Times, serif" font-size="28" font-weight="700" fill="#222222">Stage 4 F1 Improvement</text>
<line x1="220.00" y1="80.00" x2="220.00" y2="310.00" stroke="#d9d9d9" stroke-width="1" stroke-dasharray="4 3"/>
<text x="220.00" y="335.00" text-anchor="middle" font-family="Times New Roman, Times, serif" font-size="18" font-weight="700" fill="#222222">0.0</text>
<line x1="336.67" y1="80.00" x2="336.67" y2="310.00" stroke="#d9d9d9" stroke-width="1" stroke-dasharray="4 3"/>
<text x="336.67" y="335.00" text-anchor="middle" font-family="Times New Roman, Times, serif" font-size="18" font-weight="700" fill="#222222">0.1</text>
<line x1="453.33" y1="80.00" x2="453.33" y2="310.00" stroke="#d9d9d9" stroke-width="1" stroke-dasharray="4 3"/>
<text x="453.33" y="335.00" text-anchor="middle" font-family="Times New Roman, Times, serif" font-size="18" font-weight="700" fill="#222222">0.2</text>
<line x1="570.00" y1="80.00" x2="570.00" y2="310.00" stroke="#d9d9d9" stroke-width="1" stroke-dasharray="4 3"/>
<text x="570.00" y="335.00" text-anchor="middle" font-family="Times New Roman, Times, serif" font-size="18" font-weight="700" fill="#222222">0.3</text>
<line x1="220.00" y1="310.00" x2="640.00" y2="310.00" stroke="#222222" stroke-width="1.8"/>
<line x1="220.00" y1="80.00" x2="220.00" y2="310.00" stroke="#222222" stroke-width="1.8"/>
<text x="430.00" y="368.00" text-anchor="middle" font-family="Times New Roman, Times, serif" font-size="24" font-weight="700" fill="#222222">F1 Delta</text>
<line x1="524.90" y1="150.00" x2="601.85" y2="150.00" stroke="#222222" stroke-width="3"/>
<line x1="524.90" y1="138.00" x2="524.90" y2="162.00" stroke="#222222" stroke-width="2"/>
<line x1="601.85" y1="138.00" x2="601.85" y2="162.00" stroke="#222222" stroke-width="2"/>
<circle cx="563.14" cy="150.00" r="9.00" fill="#1f77b4" stroke="#222222" stroke-width="1.2" opacity="1.0"/>
<text x="202.00" y="156.00" text-anchor="end" font-family="Times New Roman, Times, serif" font-size="18" font-weight="700" fill="#222222">Joint - Union</text>
<text x="563.14" y="132.00" text-anchor="middle" font-family="Times New Roman, Times, serif" font-size="16" font-weight="700" fill="#222222">+0.29</text>
<line x1="507.98" y1="242.00" x2="592.66" y2="242.00" stroke="#222222" stroke-width="3"/>
<line x1="507.98" y1="230.00" x2="507.98" y2="254.00" stroke="#222222" stroke-width="2"/>
<line x1="592.66" y1="230.00" x2="592.66" y2="254.00" stroke="#222222" stroke-width="2"/>
<circle cx="550.21" cy="242.00" r="9.00" fill="#1f77b4" stroke="#222222" stroke-width="1.2" opacity="1.0"/>
<text x="202.00" y="248.00" text-anchor="end" font-family="Times New Roman, Times, serif" font-size="18" font-weight="700" fill="#222222">Joint - Image</text>
<text x="550.21" y="224.00" text-anchor="middle" font-family="Times New Roman, Times, serif" font-size="16" font-weight="700" fill="#222222">+0.28</text>
</svg>
