<svg xmlns="http://www.w3.org/2000/svg" width="1080" height="560" viewBox="0 0 1080 560">
<rect width="100%" height="100%" fill="white"/>
<text x="540.00" y="34.00" text-anchor="middle" font-family="Times New Roman, Times, serif" font-size="22" font-weight="700" fill="#1f2933">Stage 4 Pair-Level Detection</text>
<text x="540.00" y="58.00" text-anchor="middle" font-family="Times New Roman, Times, serif" font-size="14" font-weight="400" fill="#52616f">Precision, recall, and F1 on the 3,000-label CC3M-PairEval set</text>
<line x1="90.00" y1="466.00" x2="870.00" y2="466.00" stroke="#d8dee9" stroke-width="1"/>
<text x="80.00" y="471.00" text-anchor="end" font-family="Times New Roman, Times, serif" font-size="13" font-weight="400" fill="#1f2933">0.0</text>
<line x1="90.00" y1="377.63" x2="870.00" y2="377.63" stroke="#d8dee9" stroke-width="1"/>
<text x="80.00" y="382.63" text-anchor="end" font-family="Times New Roman, Times, serif" font-size="13" font-weight="400" fill="#1f2933">0.2</text>
<line x1="90.00" y1="289.26" x2="870.00" y2="289.26" stroke="#d8dee9" stroke-width="1"/>
<text x="80.00" y="294.26" text-anchor="end" font-family="Times New Roman, Times, serif" font-size="13" font-weight="400" fill="#1f2933">0.4</text>
<line x1="90.00" y1="200.88" x2="870.00" y2="200.88" stroke="#d8dee9" stroke-width="1"/>
<text x="80.00" y="205.88" text-anchor="end" font-family="Times New Roman, Times, serif" font-size="13" font-weight="400" fill="#1f2933">0.6</text>
<line x1="90.00" y1="112.51" x2="870.00" y2="112.51" stroke="#d8dee9" stroke-width="1"/>
<text x="80.00" y="117.51" text-anchor="end" font-family="Times New Roman, Times, serif" font-size="13" font-weight="400" fill="#1f2933">0.8</text>
<line x1="90.00" y1="466.00" x2="870.00" y2="466.00" stroke="#1f2933" stroke-width="1.2"/>
<line x1="90.00" y1="86.00" x2="90.00" y2="466.00" stroke="#1f2933" stroke-width="1.2"/>
<text x="35.00" y="276.00" text-anchor="middle" font-family="Times New Roman, Times, serif" font-size="16" font-weight="400" fill="#1f2933" transform="rotate(-90.0 35.00 276.00)">Score</text>
<rect x="135.50" y="369.66" width="19.00" height="96.34" rx="0" fill="#d9e2ec" stroke="#1f2933" stroke-width="0.8" opacity="1.0"/>
<rect x="158.50" y="156.12" width="19.00" height="309.88" rx="0" fill="#9fb3c8" stroke="#1f2933" stroke-width="0.8" opacity="1.0"/>
<rect x="181.50" y="319.02" width="19.00" height="146.98" rx="0" fill="#1f4e79" stroke="#1f2933" stroke-width="0.8" opacity="1.0"/>
<text x="168.00" y="494.00" text-anchor="middle" font-family="Times New Roman, Times, serif" font-size="15" font-weight="400" fill="#1f2933" transform="rotate(-22.0 168.00 494.00)">Image</text>
<rect x="291.50" y="342.24" width="19.00" height="123.76" rx="0" fill="#d9e2ec" stroke="#1f2933" stroke-width="0.8" opacity="1.0"/>
<rect x="314.50" y="343.58" width="19.00" height="122.42" rx="0" fill="#9fb3c8" stroke="#1f2933" stroke-width="0.8" opacity="1.0"/>
<rect x="337.50" y="342.91" width="19.00" height="123.09" rx="0" fill="#1f4e79" stroke="#1f2933" stroke-width="0.8" opacity="1.0"/>
<text x="324.00" y="494.00" text-anchor="middle" font-family="Times New Roman, Times, serif" font-size="15" font-weight="400" fill="#1f2933" transform="rotate(-22.0 324.00 494.00)">Text</text>
<rect x="447.50" y="377.05" width="19.00" height="88.95" rx="0" fill="#d9e2ec" stroke="#1f2933" stroke-width="0.8" opacity="1.0"/>
<rect x="470.50" y="113.09" width="19.00" height="352.91" rx="0" fill="#9fb3c8" stroke="#1f2933" stroke-width="0.8" opacity="1.0"/>
<rect x="493.50" y="323.91" width="19.00" height="142.09" rx="0" fill="#1f4e79" stroke="#1f2933" stroke-width="0.8" opacity="1.0"/>
<text x="480.00" y="494.00" text-anchor="middle" font-family="Times New Roman, Times, serif" font-size="15" font-weight="400" fill="#1f2933" transform="rotate(-22.0 480.00 494.00)">Union</text>
<rect x="603.50" y="214.67" width="19.00" height="251.33" rx="0" fill="#d9e2ec" stroke="#1f2933" stroke-width="0.8" opacity="1.0"/>
<rect x="626.50" y="169.51" width="19.00" height="296.49" rx="0" fill="#9fb3c8" stroke="#1f2933" stroke-width="0.8" opacity="1.0"/>
<rect x="649.50" y="193.95" width="19.00" height="272.05" rx="0" fill="#1f4e79" stroke="#1f2933" stroke-width="0.8" opacity="1.0"/>
<text x="636.00" y="494.00" text-anchor="middle" font-family="Times New Roman, Times, serif" font-size="15" font-weight="400" fill="#1f2933" transform="rotate(-22.0 636.00 494.00)">Joint</text>
<rect x="759.50" y="145.09" width="19.00" height="320.91" rx="0" fill="#d9e2ec" stroke="#1f2933" stroke-width="0.8" opacity="1.0"/>
<rect x="782.50" y="275.67" width="19.00" height="190.33" rx="0" fill="#9fb3c8" stroke="#1f2933" stroke-width="0.8" opacity="1.0"/>
<rect x="805.50" y="227.06" width="19.00" height="238.94" rx="0" fill="#1f4e79" stroke="#1f2933" stroke-width="0.8" opacity="1.0"/>
<text x="792.00" y="494.00" text-anchor="middle" font-family="Times New Roman, Times, serif" font-size="15" font-weight="400" fill="#1f2933" transform="rotate(-22.0 792.00 494.00)">Cons.</text>
<rect x="650.00" y="81.00" width="14.00" height="14.00" rx="0" fill="#d9e2ec" stroke="#1f2933" stroke-width="0.8" opacity="1.0"/>
<text x="672.00" y="92.00" text-anchor="start" font-family="Times New Roman, Times, serif" font-size="14" font-weight="400" fill="#1f2933">Precision</text>
<rect x="650.00" y="103.00" width="14.00" height="14.00" rx="0" fill="#9fb3c8" stroke="#1f2933" stroke-width="0.8" opacity="1.0"/>
<text x="672.00" y="114.00" text-anchor="start" font-family="Times New Roman, Times, serif" font-size="14" font-weight="400" fill="#1f2933">Recall</text>
<rect x="650.00" y="125.00" width="14.00" height="14.00" rx="0" fill="#1f4e79" stroke="#1f2933" stroke-width="0.8" opacity="1.0"/>
<text x="672.00" y="136.00" text-anchor="start" font-family="Times New Roman, Times, serif" font-size="14" font-weight="400" fill="#1f2933">F1</text>
</svg>
