<svg xmlns="http://www.w3.org/2000/svg" width="1080" height="560" viewBox="0 0 1080 560">
<rect width="100%" height="100%" fill="white"/>
<text x="540.00" y="34.00" text-anchor="middle" font-family="Times New Roman, Times, serif" font-size="22" font-weight="700" fill="#1f2933">Duplicate-Detection Error Decomposition</text>
<text x="540.00" y="58.00" text-anchor="middle" font-family="Times New Roman, Times, serif" font-size="14" font-weight="400" fill="#52616f">True positives, false positives, and missed positives</text>
<line x1="90.00" y1="468.00" x2="870.00" y2="468.00" stroke="#d8dee9" stroke-width="1"/>
<text x="80.00" y="473.00" text-anchor="end" font-family="Times New Roman, Times, serif" font-size="13" font-weight="400" fill="#1f2933">0.0</text>
<line x1="90.00" y1="368.00" x2="870.00" y2="368.00" stroke="#d8dee9" stroke-width="1"/>
<text x="80.00" y="373.00" text-anchor="end" font-family="Times New Roman, Times, serif" font-size="13" font-weight="400" fill="#1f2933">500</text>
<line x1="90.00" y1="268.00" x2="870.00" y2="268.00" stroke="#d8dee9" stroke-width="1"/>
<text x="80.00" y="273.00" text-anchor="end" font-family="Times New Roman, Times, serif" font-size="13" font-weight="400" fill="#1f2933">1000</text>
<line x1="90.00" y1="168.00" x2="870.00" y2="168.00" stroke="#d8dee9" stroke-width="1"/>
<text x="80.00" y="173.00" text-anchor="end" font-family="Times New Roman, Times, serif" font-size="13" font-weight="400" fill="#1f2933">1500</text>
<line x1="90.00" y1="468.00" x2="870.00" y2="468.00" stroke="#1f2933" stroke-width="1.2"/>
<line x1="90.00" y1="88.00" x2="90.00" y2="468.00" stroke="#1f2933" stroke-width="1.2"/>
<text x="35.00" y="278.00" text-anchor="middle" font-family="Times New Roman, Times, serif" font-size="16" font-weight="400" fill="#1f2933" transform="rotate(-90.0 35.00 278.00)">Pair count</text>
<rect x="139.00" y="403.20" width="58.00" height="64.80" rx="0" fill="#2a9d8f" stroke="#1f2933" stroke-width="0.5" opacity="0.88"/>
<rect x="139.00" y="170.80" width="58.00" height="232.40" rx="0" fill="#e76f51" stroke="#1f2933" stroke-width="0.5" opacity="0.88"/>
<rect x="139.00" y="143.20" width="58.00" height="27.60" rx="0" fill="#b7a99a" stroke="#1f2933" stroke-width="0.5" opacity="0.88"/>
<text x="168.00" y="496.00" text-anchor="middle" font-family="Times New Roman, Times, serif" font-size="15" font-weight="400" fill="#1f2933" transform="rotate(-20.0 168.00 496.00)">Image</text>
<rect x="295.00" y="442.40" width="58.00" height="25.60" rx="0" fill="#2a9d8f" stroke="#1f2933" stroke-width="0.5" opacity="0.88"/>
<rect x="295.00" y="376.60" width="58.00" height="65.80" rx="0" fill="#e76f51" stroke="#1f2933" stroke-width="0.5" opacity="0.88"/>
<rect x="295.00" y="309.80" width="58.00" height="66.80" rx="0" fill="#b7a99a" stroke="#1f2933" stroke-width="0.5" opacity="0.88"/>
<text x="324.00" y="496.00" text-anchor="middle" font-family="Times New Roman, Times, serif" font-size="15" font-weight="400" fill="#1f2933" transform="rotate(-20.0 324.00 496.00)">Text</text>
<rect x="451.00" y="394.20" width="58.00" height="73.80" rx="0" fill="#2a9d8f" stroke="#1f2933" stroke-width="0.5" opacity="0.88"/>
<rect x="451.00" y="101.40" width="58.00" height="292.80" rx="0" fill="#e76f51" stroke="#1f2933" stroke-width="0.5" opacity="0.88"/>
<rect x="451.00" y="82.80" width="58.00" height="18.60" rx="0" fill="#b7a99a" stroke="#1f2933" stroke-width="0.5" opacity="0.88"/>
<text x="480.00" y="496.00" text-anchor="middle" font-family="Times New Roman, Times, serif" font-size="15" font-weight="400" fill="#1f2933" transform="rotate(-20.0 480.00 496.00)">Union</text>
<rect x="607.00" y="406.00" width="58.00" height="62.00" rx="0" fill="#2a9d8f" stroke="#1f2933" stroke-width="0.5" opacity="0.88"/>
<rect x="607.00" y="359.00" width="58.00" height="47.00" rx="0" fill="#e76f51" stroke="#1f2933" stroke-width="0.5" opacity="0.88"/>
<rect x="607.00" y="328.60" width="58.00" height="30.40" rx="0" fill="#b7a99a" stroke="#1f2933" stroke-width="0.5" opacity="0.88"/>
<text x="636.00" y="496.00" text-anchor="middle" font-family="Times New Roman, Times, serif" font-size="15" font-weight="400" fill="#1f2933" transform="rotate(-20.0 636.00 496.00)">Joint</text>
<rect x="763.00" y="428.20" width="58.00" height="39.80" rx="0" fill="#2a9d8f" stroke="#1f2933" stroke-width="0.5" opacity="0.88"/>
<rect x="763.00" y="413.20" width="58.00" height="15.00" rx="0" fill="#e76f51" stroke="#1f2933" stroke-width="0.5" opacity="0.88"/>
<rect x="763.00" y="360.60" width="58.00" height="52.60" rx="0" fill="#b7a99a" stroke="#1f2933" stroke-width="0.5" opacity="0.88"/>
<text x="792.00" y="496.00" text-anchor="middle" font-family="Times New Roman, Times, serif" font-size="15" font-weight="400" fill="#1f2933" transform="rotate(-20.0 792.00 496.00)">Cons.</text>
<rect x="690.00" y="81.00" width="14.00" height="14.00" rx="0" fill="#2a9d8f" stroke="#1f2933" stroke-width="0.8" opacity="1.0"/>
<text x="712.00" y="92.00" text-anchor="start" font-family="Times New Roman, Times, serif" font-size="14" font-weight="400" fill="#1f2933">TP</text>
<rect x="690.00" y="103.00" width="14.00" height="14.00" rx="0" fill="#e76f51" stroke="#1f2933" stroke-width="0.8" opacity="1.0"/>
<text x="712.00" y="114.00" text-anchor="start" font-family="Times New Roman, Times, serif" font-size="14" font-weight="400" fill="#1f2933">FP</text>
<rect x="690.00" y="125.00" width="14.00" height="14.00" rx="0" fill="#b7a99a" stroke="#1f2933" stroke-width="0.8" opacity="1.0"/>
<text x="712.00" y="136.00" text-anchor="start" font-family="Times New Roman, Times, serif" font-size="14" font-weight="400" fill="#1f2933">FN</text>
</svg>
