<svg xmlns="http://www.w3.org/2000/svg" width="1080" height="560" viewBox="0 0 1080 560">
<rect width="100%" height="100%" fill="white"/>
<text x="540.00" y="34.00" text-anchor="middle" font-family="Times New Roman, Times, serif" font-size="22" font-weight="700" fill="#1f2933">Stage 4 F1 Improvement</text>
<text x="540.00" y="58.00" text-anchor="middle" font-family="Times New Roman, Times, serif" font-size="14" font-weight="400" fill="#52616f">Bootstrap 95% CI for the main method comparison</text>
<line x1="110.00" y1="100.00" x2="110.00" y2="430.00" stroke="#d8dee9" stroke-width="1"/>
<text x="110.00" y="452.00" text-anchor="middle" font-family="Times New Roman, Times, serif" font-size="13" font-weight="400" fill="#1f2933">0.0</text>
<line x1="312.78" y1="100.00" x2="312.78" y2="430.00" stroke="#d8dee9" stroke-width="1"/>
<text x="312.78" y="452.00" text-anchor="middle" font-family="Times New Roman, Times, serif" font-size="13" font-weight="400" fill="#1f2933">0.1</text>
<line x1="515.56" y1="100.00" x2="515.56" y2="430.00" stroke="#d8dee9" stroke-width="1"/>
<text x="515.56" y="452.00" text-anchor="middle" font-family="Times New Roman, Times, serif" font-size="13" font-weight="400" fill="#1f2933">0.2</text>
<line x1="718.33" y1="100.00" x2="718.33" y2="430.00" stroke="#d8dee9" stroke-width="1"/>
<text x="718.33" y="452.00" text-anchor="middle" font-family="Times New Roman, Times, serif" font-size="13" font-weight="400" fill="#1f2933">0.3</text>
<line x1="110.00" y1="430.00" x2="840.00" y2="430.00" stroke="#1f2933" stroke-width="1.2"/>
<line x1="110.00" y1="100.00" x2="110.00" y2="430.00" stroke="#1f2933" stroke-width="1.2"/>
<text x="475.00" y="478.00" text-anchor="middle" font-family="Times New Roman, Times, serif" font-size="16" font-weight="400" fill="#1f2933">F1 delta</text>
<line x1="639.95" y1="190.00" x2="773.70" y2="190.00" stroke="#1f2933" stroke-width="3"/>
<line x1="639.95" y1="178.00" x2="639.95" y2="202.00" stroke="#1f2933" stroke-width="2"/>
<line x1="773.70" y1="178.00" x2="773.70" y2="202.00" stroke="#1f2933" stroke-width="2"/>
<circle cx="706.41" cy="190.00" r="10.00" fill="#1f4e79" stroke="#1f2933" stroke-width="1" opacity="1.0"/>
<text x="98.00" y="195.00" text-anchor="end" font-family="Times New Roman, Times, serif" font-size="16" font-weight="700" fill="#1f2933">Joint - Union</text>
<text x="706.41" y="168.00" text-anchor="middle" font-family="Times New Roman, Times, serif" font-size="15" font-weight="700" fill="#1f2933">+0.294</text>
<line x1="610.54" y1="310.00" x2="757.71" y2="310.00" stroke="#1f2933" stroke-width="3"/>
<line x1="610.54" y1="298.00" x2="610.54" y2="322.00" stroke="#1f2933" stroke-width="2"/>
<line x1="757.71" y1="298.00" x2="757.71" y2="322.00" stroke="#1f2933" stroke-width="2"/>
<circle cx="683.94" cy="310.00" r="10.00" fill="#1f4e79" stroke="#1f2933" stroke-width="1" opacity="1.0"/>
<text x="98.00" y="315.00" text-anchor="end" font-family="Times New Roman, Times, serif" font-size="16" font-weight="700" fill="#1f2933">Joint - Image</text>
<text x="683.94" y="288.00" text-anchor="middle" font-family="Times New Roman, Times, serif" font-size="15" font-weight="700" fill="#1f2933">+0.283</text>
<line x1="110.00" y1="100.00" x2="110.00" y2="430.00" stroke="#d8dee9" stroke-width="1"/>
</svg>
