<svg xmlns="http://www.w3.org/2000/svg" width="1080" height="560" viewBox="0 0 1080 560">
<rect width="100%" height="100%" fill="white"/>
<text x="540.00" y="34.00" text-anchor="middle" font-family="Times New Roman, Times, serif" font-size="22" font-weight="700" fill="#1f2933">Retention vs Caption Metrics</text>
<text x="540.00" y="58.00" text-anchor="middle" font-family="Times New Roman, Times, serif" font-size="14" font-weight="400" fill="#52616f">A/B/C/D/E split comparison at checkpoint 1500</text>
<line x1="95.00" y1="424.33" x2="860.00" y2="424.33" stroke="#d8dee9" stroke-width="1"/>
<text x="85.00" y="429.33" text-anchor="end" font-family="Times New Roman, Times, serif" font-size="13" font-weight="400" fill="#1f2933">0.2</text>
<line x1="95.00" y1="307.67" x2="860.00" y2="307.67" stroke="#d8dee9" stroke-width="1"/>
<text x="85.00" y="312.67" text-anchor="end" font-family="Times New Roman, Times, serif" font-size="13" font-weight="400" fill="#1f2933">0.4</text>
<line x1="95.00" y1="191.00" x2="860.00" y2="191.00" stroke="#d8dee9" stroke-width="1"/>
<text x="85.00" y="196.00" text-anchor="end" font-family="Times New Roman, Times, serif" font-size="13" font-weight="400" fill="#1f2933">0.6</text>
<line x1="158.75" y1="86.00" x2="158.75" y2="471.00" stroke="#d8dee9" stroke-width="1"/>
<text x="158.75" y="493.00" text-anchor="middle" font-family="Times New Roman, Times, serif" font-size="13" font-weight="400" fill="#1f2933">150</text>
<line x1="413.75" y1="86.00" x2="413.75" y2="471.00" stroke="#d8dee9" stroke-width="1"/>
<text x="413.75" y="493.00" text-anchor="middle" font-family="Times New Roman, Times, serif" font-size="13" font-weight="400" fill="#1f2933">170</text>
<line x1="668.75" y1="86.00" x2="668.75" y2="471.00" stroke="#d8dee9" stroke-width="1"/>
<text x="668.75" y="493.00" text-anchor="middle" font-family="Times New Roman, Times, serif" font-size="13" font-weight="400" fill="#1f2933">190</text>
<line x1="796.25" y1="86.00" x2="796.25" y2="471.00" stroke="#d8dee9" stroke-width="1"/>
<text x="796.25" y="493.00" text-anchor="middle" font-family="Times New Roman, Times, serif" font-size="13" font-weight="400" fill="#1f2933">200</text>
<line x1="95.00" y1="471.00" x2="860.00" y2="471.00" stroke="#1f2933" stroke-width="1.2"/>
<line x1="95.00" y1="86.00" x2="95.00" y2="471.00" stroke="#1f2933" stroke-width="1.2"/>
<text x="477.50" y="519.00" text-anchor="middle" font-family="Times New Roman, Times, serif" font-size="16" font-weight="400" fill="#1f2933">Kept pairs (K)</text>
<text x="40.00" y="278.50" text-anchor="middle" font-family="Times New Roman, Times, serif" font-size="16" font-weight="400" fill="#1f2933" transform="rotate(-90.0 40.00 278.50)">Score</text>
<polyline points="796.25,140.88 513.15,142.50 423.73,147.70 224.12,104.22 678.24,107.94" fill="none" stroke="#1f2933" stroke-width="2.2" stroke-linejoin="round" stroke-linecap="round"/>
<circle cx="796.25" cy="140.88" r="5.00" fill="white" stroke="#1f2933" stroke-width="2" opacity="1.0"/>
<text x="796.25" y="127.88" text-anchor="middle" font-family="Times New Roman, Times, serif" font-size="14" font-weight="700" fill="#1f2933">A</text>
<circle cx="513.15" cy="142.50" r="5.00" fill="white" stroke="#1f2933" stroke-width="2" opacity="1.0"/>
<text x="513.15" y="129.50" text-anchor="middle" font-family="Times New Roman, Times, serif" font-size="14" font-weight="700" fill="#1f2933">B</text>
<circle cx="423.73" cy="147.70" r="5.00" fill="white" stroke="#1f2933" stroke-width="2" opacity="1.0"/>
<text x="423.73" y="134.70" text-anchor="middle" font-family="Times New Roman, Times, serif" font-size="14" font-weight="700" fill="#1f2933">C</text>
<circle cx="224.12" cy="104.22" r="5.00" fill="white" stroke="#1f2933" stroke-width="2" opacity="1.0"/>
<text x="224.12" y="91.22" text-anchor="middle" font-family="Times New Roman, Times, serif" font-size="14" font-weight="700" fill="#1f2933">D</text>
<circle cx="678.24" cy="107.94" r="5.00" fill="white" stroke="#1f2933" stroke-width="2" opacity="1.0"/>
<text x="678.24" y="94.94" text-anchor="middle" font-family="Times New Roman, Times, serif" font-size="14" font-weight="700" fill="#1f2933">E</text>
<polyline points="796.25,445.29 513.15,447.76 423.73,446.61 224.12,433.75 678.24,430.36" fill="none" stroke="#1f4e79" stroke-width="2.2" stroke-linejoin="round" stroke-linecap="round" stroke-dasharray="5 4"/>
<circle cx="796.25" cy="445.29" r="5.00" fill="white" stroke="#1f4e79" stroke-width="2" opacity="1.0"/>
<circle cx="513.15" cy="447.76" r="5.00" fill="white" stroke="#1f4e79" stroke-width="2" opacity="1.0"/>
<circle cx="423.73" cy="446.61" r="5.00" fill="white" stroke="#1f4e79" stroke-width="2" opacity="1.0"/>
<circle cx="224.12" cy="433.75" r="5.00" fill="white" stroke="#1f4e79" stroke-width="2" opacity="1.0"/>
<circle cx="678.24" cy="430.36" r="5.00" fill="white" stroke="#1f4e79" stroke-width="2" opacity="1.0"/>
<polyline points="796.25,291.48 513.15,299.14 423.73,297.99 224.12,282.85 678.24,284.69" fill="none" stroke="#2a9d8f" stroke-width="2.2" stroke-linejoin="round" stroke-linecap="round"/>
<circle cx="796.25" cy="291.48" r="5.00" fill="white" stroke="#2a9d8f" stroke-width="2" opacity="1.0"/>
<circle cx="513.15" cy="299.14" r="5.00" fill="white" stroke="#2a9d8f" stroke-width="2" opacity="1.0"/>
<circle cx="423.73" cy="297.99" r="5.00" fill="white" stroke="#2a9d8f" stroke-width="2" opacity="1.0"/>
<circle cx="224.12" cy="282.85" r="5.00" fill="white" stroke="#2a9d8f" stroke-width="2" opacity="1.0"/>
<circle cx="678.24" cy="284.69" r="5.00" fill="white" stroke="#2a9d8f" stroke-width="2" opacity="1.0"/>
<rect x="670.00" y="81.00" width="14.00" height="14.00" rx="0" fill="#1f2933" stroke="#1f2933" stroke-width="0.8" opacity="1.0"/>
<text x="692.00" y="92.00" text-anchor="start" font-family="Times New Roman, Times, serif" font-size="14" font-weight="400" fill="#1f2933">CIDEr</text>
<rect x="670.00" y="103.00" width="14.00" height="14.00" rx="0" fill="#1f4e79" stroke="#1f2933" stroke-width="0.8" opacity="1.0"/>
<text x="692.00" y="114.00" text-anchor="start" font-family="Times New Roman, Times, serif" font-size="14" font-weight="400" fill="#1f2933">BLEU-4</text>
<rect x="670.00" y="125.00" width="14.00" height="14.00" rx="0" fill="#2a9d8f" stroke="#1f2933" stroke-width="0.8" opacity="1.0"/>
<text x="692.00" y="136.00" text-anchor="start" font-family="Times New Roman, Times, serif" font-size="14" font-weight="400" fill="#1f2933">ROUGE-L</text>
</svg>
